<svg xmlns:rdf="http://www.w3.org/1999/02/22-rdf-syntax-ns#" xmlns="http://www.w3.org/2000/svg" xmlns:cc="http://creativecommons.org/ns#" xmlns:dc="http://purl.org/dc/elements/1.1/" version="1.1" x="0px" y="0px" viewBox="0 0 100 100"><g transform="translate(0,-952.36218)"><path style="baseline-shift:baseline;block-progression:tb;color:#000000;direction:ltr;text-indent:0;enable-background:accumulate;text-transform:none;" fill="#000" d="m20.524,956.37c-2.7024,0.0264-5.3021,0.80389-7.4688,2.75-2.4885,2.2352-3.5606,5.3224-3.6562,8.6875s0.71454,7.0555,2.0312,10.812c2.6089,7.4441,7.1742,15.123,10.562,20.719,2.8282,11.143,3.0545,17.783,4.2812,24.437,1.231,6.6775,3.4977,13.33,10.25,24.125a1.0001,1.0001,0,0,0,1.8438,-0.5312v-26.625c0-5.0773,0.57586-8.7471,2.1875-11.031,1.6116-2.2843,4.2947-3.5,9.2812-3.5,4.9866,0,7.6696,1.2157,9.2812,3.5,1.6116,2.2842,2.1875,5.954,2.1875,11.031v26.625a1.0001,1.0001,0,0,0,1.6562,0.75c8.3633-7.0085,10.204-17.147,10.906-26.469,0.351-4.6608,0.4194-9.1295,0.84375-12.969,0.42295-3.8265,1.2231-6.9775,2.8125-9.0312,0.0053-0.007-0.0053-0.0245,0-0.0312,4.4303-5.3021,9.0416-13.118,11.438-20.75,1.1993-3.8201,1.8458-7.5784,1.5938-11-0.25201-3.4216-1.4558-6.5209-3.9375-8.75-2.4761-2.2241-5.4765-2.925-8.5938-2.7188-3.1172,0.20623-6.4001,1.2428-9.6875,2.5312-6.5747,2.5769-13.321,6.0625-18.5,6.0625-5.1787,0-11.925-3.4856-18.5-6.0625-3.2874-1.2884-6.539-2.325-9.6562-2.5312-0.38965-0.0258-0.77019-0.035-1.1562-0.0312zm0,2c0.33106-0.00077,0.65602,0.008,1,0.0312,2.7518,0.18205,5.8504,1.1473,9.0625,2.4062,6.4243,2.5179,13.224,6.1875,19.25,6.1875,6.0265,0,12.826-3.6696,19.25-6.1875,3.2121-1.259,6.3107-2.2242,9.0625-2.4062,2.7518-0.18205,5.0818,0.35221,7.125,2.1875,2.0376,1.8303,3.056,4.3791,3.2812,7.4375,0.22526,3.0584-0.3524,6.5946-1.5,10.25-2.2952,7.3108-6.8144,15.015-11.062,20.094a1.0001,1.0001,0,0,0,-0.03125,0.0312c-1.998,2.5639-2.7786,6.0803-3.2188,10.062-0.44014,3.982-0.52978,8.4473-0.875,13.031-0.63689,8.457-2.244,17.11-8.5625,23.5v-24.25c0-5.2173-0.516-9.2868-2.5625-12.188-2.0465-2.9007-5.582-4.3438-10.906-4.3438-5.3242,0-8.8598,1.4431-10.906,4.3438-2.0465,2.9007-2.5625,6.9702-2.5625,12.188v22.906c-5.0772-8.6722-7.0604-14.444-8.125-20.219-1.1961-6.4879-1.448-13.286-4.3438-24.656a1.0001,1.0001,0,0,0,-0.125,-0.28125c-3.3856-5.5867-7.9022-13.297-10.438-20.531-1.2676-3.6169-2.0224-7.1058-1.9375-10.094,0.08488-2.9879,0.96914-5.4571,3-7.2812,1.7878-1.6059,3.8076-2.2134,6.125-2.2188zm26.531,14.5a1.0001,1.0001,0,0,0,-0.8125,1v5.875h-5.875a1.0001,1.0001,0,0,0,-1,1v5.5a1.0001,1.0001,0,0,0,1,1h5.875v5.875a1.0001,1.0001,0,0,0,1,1h5.5a1.0001,1.0001,0,0,0,1,-1v-5.875h5.875a1.0001,1.0001,0,0,0,1,-1v-5.5a1.0001,1.0001,0,0,0,-1,-1h-5.875v-5.875a1.0001,1.0001,0,0,0,-1,-1h-5.5a1.0001,1.0001,0,0,0,-0.1875,0zm1.1875,2,3.5,0,0,5.875a1.0001,1.0001,0,0,0,1,1h5.875v3.5h-5.875a1.0001,1.0001,0,0,0,-1,1v5.875h-3.5v-5.875a1.0001,1.0001,0,0,0,-1,-1h-5.875v-3.5h5.875a1.0001,1.0001,0,0,0,1,-1v-5.875z"/></g></svg>