<svg xmlns="http://www.w3.org/2000/svg" xmlns:xlink="http://www.w3.org/1999/xlink" version="1.1" x="0px" y="0px" viewBox="0 0 64 64" style="enable-background:new 0 0 64 64;" xml:space="preserve"><g><path d="M63,44.465c0-1.212-0.472-2.351-1.328-3.207L60.414,40l1.258-1.258C62.528,37.886,63,36.747,63,35.535   C63,33.034,60.966,31,58.465,31c-1.211,0-2.35,0.472-3.207,1.328L52.586,35H49v-2.535l-3.899-2.6   c-3.602-2.401-6.831-5.304-9.599-8.626c-3.848-4.616-9.222-7.75-15.134-8.825C18.855,12.139,17.31,12,15.774,12H9   c-4.561,0-8,8.168-8,19c0,7.642,1.716,13.943,4.326,17H1v8h3.486l5,7h45.029l5-7H63v-8h-1.729C62.316,47.169,63,45.901,63,44.465z    M53.414,37l3.258-3.258C57.15,33.264,57.788,33,58.465,33C59.862,33,61,34.138,61,35.535c0,0.678-0.264,1.314-0.742,1.793   L57.586,40l2.672,2.672C60.736,43.15,61,43.787,61,44.465C61,45.862,59.862,47,58.465,47c-0.678,0-1.314-0.264-1.793-0.742   L53.414,43H49v-1v-5H53.414z M20.011,14.382c5.451,0.991,10.407,3.881,13.954,8.138c2.892,3.47,6.265,6.501,10.026,9.01L47,33.535   V42h-1c-0.119,0-0.235,0.012-0.352,0.018C44.816,39.651,42.565,38,40,38s-4.816,1.651-5.648,4.018C34.235,42.012,34.119,42,34,42   h-1.08c-0.058-0.405-0.147-0.8-0.272-1.179c0.774-0.336,1.523-0.733,2.235-1.207l2.672-1.781l-1.109-1.664l-2.672,1.781   c-0.641,0.427-1.317,0.782-2.016,1.079C30.492,37.201,28.385,36,26,36c-3.562,0-6.505,2.677-6.939,6.123   C17.309,42.548,16,44.119,16,46c0,0.732,0.212,1.409,0.556,2h-3.883C15.284,44.943,17,38.642,17,31c0-7.642-1.716-13.943-4.326-17   h3.101C17.19,14,18.616,14.128,20.011,14.382z M42,48h-0.899c0.465-2.279,2.484-4,4.899-4h0.899C46.435,46.279,44.415,48,42,48z    M18,46c0-1.103,0.897-2,2-2s2,0.897,2,2s-0.897,2-2,2S18,47.103,18,46z M23.721,47.44C23.895,46.992,24,46.509,24,46   c0-1.828-1.239-3.356-2.916-3.832C21.483,39.808,23.528,38,26,38c1.484,0,2.804,0.663,3.721,1.693C28.834,39.895,27.923,40,27,40v2   c1.275,0,2.53-0.178,3.742-0.509C30.895,41.97,31,42.471,31,43c0,2.757-2.243,5-5,5C25.199,48,24.424,47.802,23.721,47.44z    M32,46.587c0.311,0.517,0.682,0.994,1.111,1.413h-2.221C31.318,47.58,31.689,47.104,32,46.587z M33.101,44H34   c2.415,0,4.435,1.721,4.899,4H38C35.585,48,33.565,46.279,33.101,44z M36.338,42.41C36.962,40.979,38.388,40,40,40   s3.038,0.979,3.662,2.41c-1.541,0.549-2.832,1.62-3.662,3.003C39.17,44.03,37.879,42.959,36.338,42.41z M3,31   c0-10.019,3.162-17,6-17s6,6.981,6,17s-3.162,17-6,17S3,41.019,3,31z M61,54h-6v2h2.057l-3.572,5H10.515l-3.572-5H53v-2H3v-4h35h1   h2h1h19V54z M46.889,48c0.839-0.82,1.471-1.848,1.816-3h3.881l2.672,2.672c0.123,0.123,0.265,0.221,0.399,0.328H46.889z"/><path d="M9,18c-3.157,0-4,8.171-4,13c0,4.828,0.843,13,4,13s4-8.172,4-13C13,26.171,12.157,18,9,18z M9,41.969   C8.246,41.406,7,37.466,7,31c0-6.466,1.246-10.406,2-10.969c0.754,0.562,2,4.502,2,10.969C11,37.466,9.754,41.406,9,41.969z"/></g></svg>