<svg xmlns="http://www.w3.org/2000/svg" xmlns:xlink="http://www.w3.org/1999/xlink" version="1.1" x="0px" y="0px" viewBox="0 0 95 95" enable-background="new 0 0 95 95" xml:space="preserve"><g><path d="M60.396,87.5H34.604c-1.811,0-3.283-1.473-3.283-3.283V63.68H10.783c-1.811,0-3.283-1.473-3.283-3.283V34.604   c0-1.809,1.473-3.281,3.283-3.281H31.32V10.783c0-1.809,1.473-3.283,3.283-3.283h25.793c1.809,0,3.281,1.475,3.281,3.283v20.539   h20.539c1.811,0,3.283,1.473,3.283,3.281v25.793c0,1.811-1.473,3.283-3.283,3.283H63.678v20.537   C63.678,86.027,62.205,87.5,60.396,87.5z M10.783,34.135c-0.258,0-0.469,0.211-0.469,0.469v25.793c0,0.258,0.211,0.469,0.469,0.469   h23.352v23.352c0,0.258,0.211,0.469,0.469,0.469h25.793c0.258,0,0.469-0.211,0.469-0.469V60.865h23.352   c0.258,0,0.469-0.211,0.469-0.469V34.604c0-0.258-0.211-0.469-0.469-0.469H60.865V10.783c0-0.258-0.211-0.469-0.469-0.469H34.604   c-0.258,0-0.469,0.211-0.469,0.469v23.352H10.783z"/></g></svg>