<svg xmlns="http://www.w3.org/2000/svg" viewBox="0 0 64 64" x="0px" y="0px"><path d="M24.178,24.034l1.954,3.419a1,1,0,0,0,.868.5h4a1,1,0,0,0,.868-1.5l-3.145-5.5H31a1,1,0,0,0,1-1v-5a1,1,0,0,0-1-1H26.088l.756-8.932a2.861,2.861,0,0,0-.751-2.155,2.953,2.953,0,0,0-4.186,0,2.863,2.863,0,0,0-.75,2.163l.755,8.924H11v-1a1,1,0,0,0-1-1H6a1,1,0,0,0-1,1v11a1,1,0,0,0,1,1h4a1,1,0,0,0,1-1V22.815l8.076-1.243A5.033,5.033,0,0,1,24.178,24.034ZM23.15,4.872a.839.839,0,0,1,.225-.643.874.874,0,0,1,1.25,0,.832.832,0,0,1,.225.635l-.769,9.093h-.162ZM9,22.957H7v-9H9v9ZM18.772,19.6,11,20.792V15.957H30v3H28.723a2,2,0,0,0-1.736,2.992l2.29,4.008h-1.7l-1.666-2.915A7.043,7.043,0,0,0,18.772,19.6Z"/><path d="M55.16,36H51.409A4,4,0,0,0,52,34a4.245,4.245,0,0,0-1.694-3.31,5.536,5.536,0,0,0-4.86-.79A7.832,7.832,0,0,0,39.12,27c-3.1,0-5.807,1.32-7.089,3.37A7.7,7.7,0,0,0,29.65,30c-3.507,0-6.36,2.27-6.36,5.06A4.561,4.561,0,0,0,25,38.519V47a3.979,3.979,0,0,0,2,3.459V58a4,4,0,0,0,4,4H46a4,4,0,0,0,4-4V56.721L56.379,54.6A3.839,3.839,0,0,0,59,50.96V39.84A3.845,3.845,0,0,0,55.16,36ZM53,49.281l-3,1V42l3,0ZM26.576,37.212A2.684,2.684,0,0,1,25.29,35.06c0-1.659,2-3.06,4.36-3.06a5.475,5.475,0,0,1,2.416.537A1,1,0,0,0,33.444,32c.673-1.764,3.007-3,5.676-3a5.782,5.782,0,0,1,5.037,2.538A.994.994,0,0,0,45.1,32c.124-.012.687-.117.807-.148a3.618,3.618,0,0,1,3.181.427A2.235,2.235,0,0,1,50,34a2.632,2.632,0,0,1-1.468,2.1,6.109,6.109,0,0,1-2.576.645,1,1,0,0,0-.956,1V39a2,2,0,0,1-2,2H42a1,1,0,0,0-1,1v1.5a1.513,1.513,0,0,1-.437,1.062,1.565,1.565,0,0,1-2.126,0A1.517,1.517,0,0,1,38,43.5a3.5,3.5,0,0,0-7,0V47a2,2,0,0,1-4,0V38.03A1,1,0,0,0,26.576,37.212ZM48,58a2,2,0,0,1-2,2H31a2,2,0,0,1-2-2V51a4,4,0,0,0,4-4V43.5A1.5,1.5,0,0,1,34.5,42a1.487,1.487,0,0,1,1.062.437A1.514,1.514,0,0,1,36,43.5a3.483,3.483,0,0,0,1.023,2.478,3.6,3.6,0,0,0,4.955,0A3.482,3.482,0,0,0,43,43.5V43a4,4,0,0,0,4-4v-.352a8.369,8.369,0,0,0,1-.229Zm9-7.04A1.838,1.838,0,0,1,55.744,52.7L50,54.613V52.391l3.65-1.217A2.012,2.012,0,0,0,55,49.28V42a2,2,0,0,0-2-2H50V38h5.16A1.842,1.842,0,0,1,57,39.84Z"/></svg>