<svg xmlns="http://www.w3.org/2000/svg" viewBox="0 0 100 100" x="0px" y="0px"><title>Icone_Varie_04</title><g data-name="Layer 1"><path d="M65.80682,54.7679H62.79028c-6.567-2.95874-10.4259-6.69037-12.68555-10.19867a28.32056,28.32056,0,0,1,3.22706-8.05011c.00946-.01526.01788-.03052.0263-.04578a7.50479,7.50479,0,0,0,.40637-7.44879c-.06164-.12329-.1336-.239-.20123-.35785a8.4228,8.4228,0,0,0,7.10968-10.755l1.20679.615a1.34759,1.34759,0,0,0,1.22345-2.40149l-1.9173-.97705,2.15-4.21869A1.34733,1.34733,0,0,0,62.74725,9.117L55.01,5.1736a1.34675,1.34675,0,0,0-1.812.58911l-2.15,4.21911-1.91815-.97747a1.3476,1.3476,0,0,0-1.22339,2.40155l1.80188.91827a8.42311,8.42311,0,0,0-4.17883,12.70569,7.52351,7.52351,0,0,0-4.68543,3.03552C37.474,32.75,32.44458,45.395,34.38708,53.95881a7.54471,7.54471,0,0,0,2.5102,4.79169,1.35165,1.35165,0,0,0,.03869.24927l4.23981,16.31787L32.98364,91.97975a1.34747,1.34747,0,0,0,1.20972,1.942H38.6795a1.34763,1.34763,0,0,0,0-2.69525H36.358l7.45721-15.16919a1.34942,1.34942,0,0,0,.09479-.93335L40.08661,60.40675a7.09,7.09,0,0,0,4.574-.30127l5.58215,15.66541-2.012,16.6416A1.34779,1.34779,0,0,0,49.569,93.9217h4.48608a1.34763,1.34763,0,1,0,0-2.69525H51.08923L52.957,75.77931a1.35191,1.35191,0,0,0-.06842-.61383L47.00049,58.64131a7.51315,7.51315,0,0,0,2.41687-5.60059h-.00214v-.07739a7.533,7.533,0,0,0-.07788-.95966,23.44677,23.44677,0,0,1,.1333-3.78869,29.94032,29.94032,0,0,0,7.61694,6.58111,1.33666,1.33666,0,0,0,.13965,2.66706H62.485l.00531.00055.00379-.00055h1.965V93.62587a1.34763,1.34763,0,1,0,2.69525,0V56.11549A1.34751,1.34751,0,0,0,65.80682,54.7679Zm-10.82-46.58106,5.33576,2.71948L58.78509,13.9247l-5.33654-2.71955ZM52.54,14.52437A5.75748,5.75748,0,1,1,46.7558,20.2823,5.77713,5.77713,0,0,1,52.54,14.52437Zm-5.88953,37.6983c.00311.04315.00733.0863.01367.129a4.70166,4.70166,0,0,1,.05579.66748c0,.01318.001.03.00214.04846a4.84422,4.84422,0,0,1-9.66608.50323,1.40387,1.40387,0,0,0-.05371-.26739c-1.58136-7.13611,2.50152-18.75891,6.04223-23.67981A4.872,4.872,0,0,1,48.55084,27.799a4.82743,4.82743,0,0,1,2.50049,7.27716,1.57336,1.57336,0,0,0-.08106.14057,29.88381,29.88381,0,0,0-2.66888,5.87311,16.81739,16.81739,0,0,1-1.30029-7.51868,1.34788,1.34788,0,0,0-2.67737-.31427,19.622,19.622,0,0,0,1.54663,8.93542,22.91521,22.91521,0,0,0,1.38678,2.82129A28.89859,28.89859,0,0,0,46.65051,52.22267Z"/></g></svg>