<svg xmlns="http://www.w3.org/2000/svg" xmlns:xlink="http://www.w3.org/1999/xlink" version="1.1" x="0px" y="0px" viewBox="0 0 64 64" style="enable-background:new 0 0 64 64;" xml:space="preserve"><g><path d="M62.879,26.912c0.707-7.089-1.758-14.024-6.763-19.029c-5.005-5.004-11.939-7.466-19.031-6.762   c-10.771,1.076-19.56,9.645-20.897,20.375c-0.49,3.928-0.033,7.762,1.359,11.396c0.698,1.822,0.25,3.898-1.14,5.289l-1.114,1.114   L0.741,53.845l0.402,0.669c2.047,3.411,4.932,6.296,8.343,8.343l0.67,0.402l15.665-15.666c1.391-1.39,3.466-1.836,5.289-1.14   c3.633,1.392,7.467,1.847,11.398,1.359C53.237,46.473,61.805,37.684,62.879,26.912z M19.414,32.175   c-0.565-1.474-0.951-2.986-1.178-4.525l4.35,4.35l-2.732,2.732C19.864,33.872,19.732,33.005,19.414,32.175z M9.855,60.731   c-2.626-1.705-4.881-3.96-6.586-6.586l13.438-13.438l1.114-1.114L24,33.414L30.586,40l-6.179,6.179L9.855,60.731z M29.268,44.146   L32,41.414l4.35,4.35c-1.539-0.227-3.051-0.614-4.524-1.178C30.994,44.268,30.127,44.136,29.268,44.146z M42.26,45.828   c-0.956,0.119-1.906,0.173-2.848,0.17L33.414,40l-0.707-0.707l-8-8L24,30.586l-5.998-5.998c-0.003-0.941,0.051-1.89,0.17-2.846   c1.224-9.812,9.261-17.647,19.112-18.631h0c6.495-0.648,12.839,1.606,17.418,6.186c4.58,4.579,6.835,10.927,6.188,17.417   C59.907,36.564,52.072,44.603,42.26,45.828z"/><path d="M55,47c-4.411,0-8,3.589-8,8s3.589,8,8,8s8-3.589,8-8S59.411,47,55,47z M55,61c-3.309,0-6-2.691-6-6s2.691-6,6-6   s6,2.691,6,6S58.309,61,55,61z"/><rect x="7.586" y="54" transform="matrix(0.7071 -0.7071 0.7071 0.7071 -36.2548 22.4731)" width="2.828" height="2"/><rect x="10.586" y="51" transform="matrix(0.7071 -0.7071 0.7071 0.7071 -33.2548 23.7157)" width="2.828" height="2"/><rect x="13.586" y="48" transform="matrix(0.7071 -0.7071 0.7071 0.7071 -30.2548 24.9584)" width="2.828" height="2"/></g></svg>